<svg width="15" height="16" viewBox="0 0 15 16" fill="none" xmlns="http://www.w3.org/2000/svg">
<path d="M2.5 6.12524H10.625L9.625 6.87524C9.55934 6.92449 9.50402 6.98618 9.4622 7.05681C9.42039 7.12743 9.39289 7.2056 9.38128 7.28685C9.36967 7.3681 9.37418 7.45085 9.39455 7.53035C9.41492 7.60986 9.45075 7.68458 9.5 7.75024C9.55822 7.82786 9.63371 7.89086 9.72049 7.93426C9.80728 7.97765 9.90297 8.00024 10 8.00024C10.1352 8.00024 10.2668 7.95638 10.375 7.87524L12.875 6.00024C12.9514 5.94191 13.0134 5.86673 13.056 5.78055C13.0987 5.69438 13.1209 5.59952 13.1209 5.50337C13.1209 5.40721 13.0987 5.31236 13.056 5.22618C13.0134 5.14 12.9514 5.06482 12.875 5.00649L10.4625 3.13149C10.3315 3.02955 10.1655 2.9838 10.0008 3.00431C9.83611 3.02482 9.68632 3.10991 9.58437 3.24087C9.48243 3.37182 9.43668 3.5379 9.4572 3.70258C9.47771 3.86726 9.5628 4.01705 9.69375 4.11899L10.675 4.87524H2.5C2.33424 4.87524 2.17527 4.94109 2.05806 5.0583C1.94085 5.17551 1.875 5.33448 1.875 5.50024C1.875 5.666 1.94085 5.82497 2.05806 5.94218C2.17527 6.05939 2.33424 6.12524 2.5 6.12524Z" fill="#656565"/>
<path d="M12.5 10.5H4.37502L5.37502 9.75C5.50763 9.65055 5.5953 9.50249 5.61874 9.33839C5.64218 9.1743 5.59948 9.00761 5.50002 8.875C5.40056 8.74239 5.2525 8.65473 5.08841 8.63128C4.92431 8.60784 4.75763 8.65055 4.62502 8.75L2.12502 10.625C2.04858 10.6833 1.98662 10.7585 1.94398 10.8447C1.90134 10.9309 1.87915 11.0257 1.87915 11.1219C1.87915 11.218 1.90134 11.3129 1.94398 11.3991C1.98662 11.4852 2.04858 11.5604 2.12502 11.6188L4.53752 13.4938C4.64661 13.5784 4.78068 13.6246 4.91877 13.625C5.01422 13.6248 5.10835 13.6027 5.19393 13.5604C5.27952 13.5182 5.3543 13.4569 5.41252 13.3813C5.51401 13.251 5.55981 13.0858 5.5399 12.9218C5.51999 12.7579 5.436 12.6085 5.30627 12.5063L4.32502 11.75H12.5C12.6658 11.75 12.8248 11.6842 12.942 11.5669C13.0592 11.4497 13.125 11.2908 13.125 11.125C13.125 10.9592 13.0592 10.8003 12.942 10.6831C12.8248 10.5658 12.6658 10.5 12.5 10.5Z" fill="#656565"/>
</svg>
