<svg width="19" height="20" viewBox="0 0 19 20" fill="none" xmlns="http://www.w3.org/2000/svg">
<path id="Vector (Stroke)" fill-rule="evenodd" clip-rule="evenodd" d="M15.5432 2.62535C15.3446 2.62535 15.1479 2.66448 14.9643 2.7405C14.7808 2.81652 14.614 2.92794 14.4736 3.06841L3.46006 14.0819L2.65783 17.0234L5.59934 16.2212L16.6128 5.20769C16.7533 5.06722 16.8647 4.90046 16.9408 4.71694C17.0168 4.53341 17.0559 4.3367 17.0559 4.13805C17.0559 3.9394 17.0168 3.74269 16.9408 3.55916C16.8647 3.37564 16.7533 3.20888 16.6128 3.06841C16.4724 2.92794 16.3056 2.81652 16.1221 2.7405C15.9386 2.66448 15.7419 2.62535 15.5432 2.62535ZM14.3311 1.2118C14.7154 1.05263 15.1273 0.970703 15.5432 0.970703C15.9591 0.970703 16.371 1.05263 16.7553 1.2118C17.1396 1.37098 17.4887 1.60428 17.7829 1.8984C18.077 2.19251 18.3103 2.54168 18.4695 2.92596C18.6286 3.31024 18.7106 3.72211 18.7106 4.13805C18.7106 4.55399 18.6286 4.96586 18.4695 5.35014C18.3103 5.73442 18.077 6.08359 17.7829 6.3777L6.61399 17.5466C6.51219 17.6484 6.38557 17.7218 6.24667 17.7597L1.69639 19.0007C1.40996 19.0788 1.10364 18.9975 0.893704 18.7876C0.68377 18.5776 0.602421 18.2713 0.680538 17.9849L1.92152 13.4346C1.95941 13.2957 2.03288 13.1691 2.13469 13.0673L13.3036 1.8984C13.5977 1.60428 13.9468 1.37098 14.3311 1.2118Z" fill="white"/>
</svg>
