<svg width="58" height="56" viewBox="0 0 58 56" fill="none" xmlns="http://www.w3.org/2000/svg">
<g id="hot-air-balloon--travel-transportation-hot-air-balloon">
<g id="birds">
<path id="vector" d="M39.1087 10.7094C38.3932 11.0697 37.8529 11.4174 37.6648 12.132C37.591 12.4119 37.5904 12.4176 37.5049 12.3582C37.0909 12.0717 36.6739 11.7405 36.1459 11.8203C35.8822 11.8602 35.4355 12.0477 35.4466 12.3108C35.428 12.4902 35.608 12.537 35.7346 12.4314C36.7213 11.6088 37.7491 13.6344 37.9789 12.7512C38.041 12.5133 37.9723 12.5013 38.1394 12.0759C38.4016 11.4093 39.2623 11.2356 39.4552 10.9224C39.5722 10.7325 39.3484 10.5885 39.1084 10.7094H39.1087Z" fill="#656565"/>
<path id="vector_2" d="M5.89448 40.5427C5.65628 40.5307 5.20118 40.6885 4.79048 41.1037C4.43708 41.4613 4.61318 41.7148 4.42568 41.6212C4.05728 41.4373 3.63218 41.1982 3.18848 41.2063C2.37548 41.2213 2.56868 41.8459 2.89238 41.6743C3.26588 41.476 3.93398 41.848 4.29758 42.0466C5.14688 42.5107 4.65998 41.6422 5.30798 41.2294C5.57798 41.0575 5.81708 40.9414 5.97968 40.8139C6.09278 40.7251 6.10508 40.5532 5.89448 40.5427Z" fill="#656565"/>
<path id="vector_3" d="M11.8201 38.6487C11.7709 38.7237 11.7682 38.7204 11.6833 38.6793C10.9882 38.343 10.9054 38.2638 10.285 38.2032C10.1458 38.235 9.92168 38.2482 9.94058 38.4393C9.95288 38.5638 10.1113 38.607 10.2361 38.6106C11.3002 38.6391 11.7463 39.642 12.148 38.9412C12.4765 38.3682 13.7518 37.7604 13.7131 37.6578C13.567 37.2693 12.2452 38.0028 11.8201 38.6487Z" fill="#656565"/>
<path id="vector_4" d="M45.2327 12.2247C44.4899 12.5097 44.3918 12.6741 44.0993 13.1496C43.7549 12.9303 43.3781 12.6726 42.9176 12.7311C42.3821 12.7989 42.6152 13.3704 42.9188 13.1673C43.1813 12.9918 43.9349 13.584 44.0324 13.6416C44.2058 13.7442 44.3705 13.686 44.4449 13.4973C44.7977 12.6009 45.3194 12.7935 45.5546 12.4701C45.6695 12.312 45.5147 12.117 45.2327 12.2253V12.2247Z" fill="#656565"/>
<path id="vector_5" d="M46.0995 7.7185C45.4065 8.2402 45.4959 8.5237 45.3948 8.452C45.0378 8.1991 44.8161 8.0146 44.4912 7.9858C44.19 7.9795 44.0508 8.1637 44.127 8.3212C44.2323 8.5393 44.3112 8.3005 44.622 8.4454C45.15 8.6917 45.6447 9.4501 45.8136 8.7433C45.9627 8.119 46.8639 7.8523 46.8702 7.8493C47.1561 7.7023 46.8051 7.1869 46.0998 7.7182L46.0995 7.7185Z" fill="#656565"/>
<path id="vector_6" d="M6.65563 35.8003C6.32263 35.6128 6.00883 35.4061 5.58403 35.4634C5.34403 35.4958 5.29843 35.7871 5.59213 35.8045C6.45823 35.8561 6.75583 36.8116 7.08613 35.9137C7.20733 35.5843 7.64653 35.0731 7.74793 34.9621C8.36293 34.2874 8.38213 34.4047 8.49913 34.291C8.65153 34.1428 7.64803 33.988 6.65593 35.8L6.65563 35.8003Z" fill="#656565"/>
</g>
<g id="clouds">
<path id="vector_7" d="M32.8226 47.1548C32.8226 45.9521 32.8826 44.9837 33.7256 44.102C34.8248 42.9518 35.6195 42.7187 36.6479 42.7418C38.0324 42.773 39.1556 43.2098 40.0319 44.282C40.8392 45.2699 40.6781 45.4205 40.8299 45.1187C41.6258 43.5365 43.0475 42.5462 44.3696 42.2801C46.4576 41.8601 49.2527 43.8479 49.1234 45.8909C49.0697 46.7402 48.2111 48.4406 48.4847 48.4496C49.8836 48.4955 50.921 48.7106 52.5443 50.3273C52.88 50.6615 53.3663 51.3578 53.4347 51.8162C53.4776 52.1042 53.6252 52.0787 54.7199 52.3553C56.0216 52.6844 56.5535 52.7684 57.0674 53.2775C57.4934 53.6996 57.3056 54.2897 56.8493 54.5639C55.8365 55.1732 54.8435 55.2074 53.7776 55.1912C50.1992 55.1363 48.8345 55.331 39.7931 55.0355C35.3174 54.8891 39.4931 54.9842 32.1701 54.7556C22.3622 54.4493 23.0183 54.7679 21.7085 54.578C20.7731 54.4424 19.4171 54.1799 19.7495 53.2952C19.9544 52.7504 20.9117 52.6067 21.5759 52.4174C22.688 52.1006 22.9436 51.9161 24.5819 51.8924C25.3037 51.8819 26.1152 51.9866 26.2082 51.2687C26.3105 50.4809 26.201 50.2418 26.4776 49.5311C26.6936 48.9761 27.3305 48.2027 28.2734 47.7497C29.9447 46.9466 31.3151 47.9957 32.501 48.7118C32.7233 48.8462 32.7596 48.9263 32.786 48.836C32.795 48.8054 32.8415 47.1539 32.8223 47.1539L32.8226 47.1548ZM33.1775 48.707C33.1742 48.8588 33.1418 49.0043 33.1088 49.1501C33.002 49.6193 32.4995 49.1891 32.2472 49.0364C30.6128 48.0482 30.3284 47.8394 29.2805 47.8955C28.2638 47.9501 27.0911 48.9314 26.8037 49.8818C26.4701 50.984 27.1112 52.1426 25.136 52.2257C24.2582 52.2626 24.1649 52.1744 23.3807 52.3019C22.4048 52.4606 22.292 52.6271 20.639 53.051C20.1572 53.1746 19.6286 53.6309 20.6789 53.9471C22.4291 54.4739 23.8697 54.0905 26.4074 54.2201C26.4656 54.2231 26.4209 54.3245 35.225 54.4199C35.2319 54.4199 45.5198 55.0223 53.0672 54.7979C53.5064 54.7847 55.9043 55.0376 56.8418 54.1463C56.981 54.0137 57.0299 53.7077 56.8505 53.5271C56.2571 52.9301 55.5617 52.9775 53.5232 52.4192C53.0459 52.2884 53.1329 51.9002 52.9289 51.5102C52.5251 50.7383 52.064 50.3963 51.6848 50.0531C49.4777 48.0563 47.7641 49.379 47.9753 48.4172C48.4265 46.3634 49.5635 45.5843 47.6198 43.6778C47.1629 43.2299 46.8032 43.0967 45.9758 42.7694C45.2636 42.4877 44.3369 42.5084 43.3145 43.0832C41.0165 44.375 41.2706 45.8552 40.712 45.8018C40.274 45.7601 39.6947 43.3268 37.0562 43.1507C36.8243 43.1351 36.1652 43.1255 35.8589 43.1825C35.0723 43.3289 34.2941 44.024 33.8414 44.5835C33.1145 45.4811 33.2276 46.3043 33.1772 48.7073L33.1775 48.707Z" fill="#656565"/>
<path id="vector_8" d="M39.9962 19.8533C41.2565 19.8398 42.1346 19.9064 43.2992 21.2228C43.9247 21.9299 43.886 22.1318 43.9634 21.9944C45.5708 19.1453 46.4591 18.7217 48.6434 18.599C50.9621 18.4688 52.382 20.756 52.3748 22.1081C52.3583 25.3085 51.1184 23.4899 53.9495 24.5543C54.7037 24.8378 55.3229 25.3478 55.2749 26.1527C55.2461 26.6351 55.0145 26.9591 54.6932 27.5066C54.5312 27.7826 54.4004 27.6311 56.0477 28.1909C56.2589 28.2626 57.0023 28.5233 57.2741 28.6694C57.7745 28.9382 57.7595 29.2568 57.5204 29.4062C56.6882 29.9255 55.0559 29.6591 53.6684 29.7242C52.4768 29.7803 39.0449 29.6618 37.3553 29.5205C36.8474 29.4779 35.8844 29.5229 35.7839 29.5217C32.2211 29.4779 29.5832 29.8334 28.8476 29.1281C28.6802 28.9676 28.6721 28.7627 28.8383 28.5971C28.9358 28.4996 29.0558 28.4378 29.1746 28.3754C30.2069 27.8318 31.2203 27.6128 31.757 27.4781C32.1551 27.3782 32.2538 27.443 32.21 27.3164C32.0114 26.741 32.1377 25.9799 32.4743 25.4405C33.0155 24.5735 34.6457 24.2396 35.9333 24.8993C36.4613 25.1699 36.3413 25.1561 36.1526 24.3044C35.7005 22.2653 37.3331 19.8818 39.9965 19.853L39.9962 19.8533ZM56.0813 29.3732C56.5592 29.3744 57.4316 29.2082 57.2435 29.0714C57.1766 29.0228 57.1091 28.9709 57.0335 28.9409C54.7553 28.0319 54.038 28.1705 54.2117 27.6311C54.3854 27.092 55.8386 25.7411 53.8799 24.938C53.2538 24.6812 52.3652 24.5204 51.9491 24.5312C51.728 24.5369 51.5768 24.3875 51.6467 24.1469C52.2371 22.118 52.1033 21.0248 50.642 19.6268C50.2826 19.2833 49.7609 19.1351 49.2635 19.0394C48.7661 18.9437 48.7313 18.9851 47.8925 19.0664C44.6123 19.3838 44.3102 23.7869 43.6244 22.3886C43.3619 21.8537 42.8309 21.2033 41.9717 20.6279C41.4755 20.2955 40.9475 20.3018 40.4402 20.2631C39.1844 20.1674 38.3042 20.3771 37.2035 21.6077C36.623 22.2569 36.3305 23.3378 36.578 24.3746C36.6641 24.7358 36.6683 25.1126 36.7886 25.4669C36.8147 25.5437 36.7811 25.6106 36.7166 25.658C36.581 25.7579 36.4616 25.6286 36.3986 25.5854C34.9079 24.5642 32.6702 24.7388 32.5235 26.4752C32.4995 26.7575 32.4791 27.0452 32.5667 27.3257C32.7758 27.9962 31.037 27.6101 29.102 28.7852C29.0363 28.8251 29.0357 28.8677 29.102 28.8989C30.3203 29.4734 33.1652 28.9829 39.0395 29.2118C43.73 29.3945 56.0645 29.3729 56.0813 29.3729V29.3732Z" fill="#656565"/>
<path id="vector_9" d="M3.26432 54.5747C15.9642 54.5747 15.3174 54.9956 16.0566 54.5561C16.605 54.2297 15.1956 53.7863 14.484 53.6081C12.7608 53.177 12.4902 53.4275 12.2814 52.3553C12.096 51.4037 12.1347 50.9387 11.4984 50.5925C11.2011 50.4308 10.5885 50.27 10.1487 50.2946C9.46653 50.3327 9.14612 50.5382 8.33673 51.0389C7.96563 51.2684 7.74603 51.5213 7.52313 51.1814C7.17782 50.6549 7.03502 48.1805 4.29212 48.5477C3.00422 48.7202 2.35562 50.2682 1.94642 49.7336C1.85402 49.613 1.75712 49.1855 1.38902 48.9719C1.01372 48.7541 0.847221 48.7976 0.724221 48.6545C0.444321 48.3296 1.61882 48.3122 2.07572 49.0931C2.21582 49.3325 2.18012 49.3814 2.33702 49.253C3.26732 48.4919 3.49682 48.1268 4.84082 48.1127C5.60822 48.1046 6.35042 48.3815 6.89462 49.0043C7.43132 49.6184 7.44512 49.8491 7.66052 50.4746C7.80992 50.9075 7.79402 50.915 7.89932 50.8508C8.68233 50.3723 9.12453 50.0585 9.69573 49.9592C10.3293 49.8491 10.989 49.9517 11.5209 50.1722C12.2277 50.4653 12.4134 50.915 12.5319 51.5306C12.936 53.6282 12.5715 52.4657 15.4137 53.4806C16.0242 53.6987 16.2999 53.8259 16.5078 54.1868C16.6455 54.4253 16.5633 54.761 16.0305 54.9728C15.2832 55.2698 14.2284 55.1 13.7067 55.0772C10.2783 54.9263 1.57802 55.0964 0.907521 54.9134C0.813921 54.8879 0.770721 54.7079 0.918021 54.6716C1.27502 54.5834 3.26432 54.5684 3.26432 54.5747Z" fill="#656565"/>
</g>
<g id="air balloon">
<path id="vector_10" d="M22.8342 32.7678C23.1147 29.9049 22.9383 29.9802 23.0871 29.8122C27.3879 24.9621 31.233 20.7582 31.7904 14.2584C32.1285 10.3194 30.3345 6.81814 28.3218 5.47654C27.5178 4.93954 27.1527 4.62124 26.2293 4.25644C25.9971 4.16464 25.9269 4.09024 25.7871 3.94264C24.7665 2.86174 22.8675 1.80034 21.1047 1.71454C20.859 1.70284 20.8497 1.55764 20.0079 1.20874C19.2324 0.887141 18.0792 0.660641 17.169 0.988241C17.0361 1.03624 16.9923 1.01884 16.875 0.972941C15.9609 0.613841 14.6478 0.685841 13.7778 1.50514C13.7016 1.57714 13.6749 1.59904 13.6272 1.59244C13.2519 1.53544 12.8316 1.54234 12.4119 1.61254C9.72871 2.06104 8.73961 3.38974 8.26411 4.02814C8.12161 4.21954 8.01871 4.35754 7.93921 4.37914C7.50781 4.49644 6.93811 4.91194 6.58141 5.23264C4.61641 6.99394 4.08811 9.42544 3.83791 9.68074C2.51611 11.0334 1.62121 13.0242 1.44451 15.0063C1.34791 16.0959 1.41361 16.0701 1.41121 16.2474C1.37851 18.9168 3.29071 22.1418 4.93801 24.0927C8.44021 28.2396 14.7615 30.9192 15.2016 31.7787C17.0268 35.3475 17.5575 35.8161 17.4366 36.0033C17.2419 36.3066 17.5269 36.7998 17.817 37.02C17.9136 37.0932 17.9109 37.1316 17.8962 37.3443C17.8518 37.9815 17.8893 39.0177 17.9472 39.7095C17.9757 40.0497 17.9736 40.0614 17.8728 40.1313C17.586 40.3302 17.4627 40.7277 17.6916 41.0301C17.7375 41.0907 17.7303 41.0979 17.6592 41.1678C17.3502 41.472 17.4252 41.6418 16.7724 42.2604C16.5144 42.5046 16.344 42.6663 16.4052 43.0866C16.428 43.2426 16.6485 43.4853 16.9872 43.5153C17.3547 43.548 17.628 43.2198 17.8551 42.8814C17.8284 44.5305 17.7684 45.1668 18.396 45.411C19.6491 45.8982 20.6055 45.5907 21.7191 45.2997C24.1353 44.6679 26.0442 44.1708 26.4369 43.4238C26.5242 43.2579 26.5347 43.0806 26.4681 42.8973C26.3166 42.4797 26.0397 41.9157 26.0517 41.844C26.5287 41.7213 26.7153 41.1504 26.5365 40.7997C25.9419 39.6336 25.122 39.8202 25.1448 39.519C25.1775 39.0921 24.852 38.6427 24.7032 38.5845C24.2949 38.4249 24.2865 38.4798 24.2382 38.37C23.2914 36.2091 22.995 36.0075 23.0712 35.9031C23.256 35.6505 23.1507 35.2332 23.0169 35.0172C22.7391 34.5696 22.6599 34.6572 22.6644 34.5858C22.6836 34.3047 22.7781 33.3267 22.8327 32.7687L22.8342 32.7678ZM17.892 41.3673C17.8857 42.0723 17.7711 42.8229 17.04 43.1448C16.5822 43.0524 16.7037 42.7245 17.0718 42.4431C17.3697 42.2157 17.5533 41.8968 17.6877 41.664C17.7639 41.5314 17.8317 41.4138 17.892 41.3673ZM21.0276 39.8433C17.9844 40.6551 18.1977 41.061 18.0423 40.8462C17.9979 40.7847 17.9553 40.7271 17.9586 40.6476C17.9697 40.4049 18.2181 40.263 18.4245 40.1865C21.3837 39.0915 22.2885 39.0009 23.8911 38.8263C24.0945 38.8041 24.4719 38.7633 24.6357 39.0738C24.6834 39.1641 24.759 39.2826 24.7698 39.405C23.8608 39.1188 21.957 39.5952 21.0273 39.843L21.0276 39.8433ZM18.2784 37.3431C18.2823 37.3416 18.3051 37.3344 18.4152 37.3686C19.2978 37.6446 19.2084 37.1574 19.3206 37.8714C19.4187 38.493 19.4679 38.7252 19.5294 39.0039C19.6701 39.6381 19.5831 39.2055 18.3567 39.8679C18.3186 39.8889 18.3231 37.4424 18.2784 37.3431ZM19.9677 37.3392C21.4449 37.0269 21.3915 36.846 21.4395 36.9852C21.6837 37.7019 21.7221 37.8843 22.0347 38.6148C22.1037 38.7759 22.0701 38.5734 20.0157 39.2151C19.9329 39.2412 19.9902 39.3888 19.6518 37.494C19.649 37.4355 19.7543 37.3839 19.9677 37.3392ZM23.847 38.4306C23.76 38.439 23.3691 38.4321 22.6158 38.58C22.5807 38.5863 22.5333 38.5848 22.4895 38.5908C22.4184 38.6007 22.4184 38.601 22.3965 38.5383C22.2402 38.0913 21.81 36.8562 21.7986 36.8277C21.7584 36.7305 22.3032 36.5643 22.7724 36.2793C22.8027 36.2931 22.8108 36.3357 23.4705 37.6392C23.7522 38.196 23.8512 38.3919 23.847 38.4306ZM22.7703 35.7039C22.7544 35.6955 22.7379 35.6844 22.7184 35.6715C22.4835 35.5173 21.9942 35.196 19.1883 36.1605C18.2586 36.48 18.2955 36.8304 18.228 36.8238C18.0549 36.807 17.6001 36.2127 17.8482 36.0279C18.4566 35.5758 21.0387 34.8159 22.3086 34.8729C22.5417 34.8831 22.8999 35.3079 22.7703 35.7039ZM6.22831 10.9479C6.29551 15.2931 8.89591 20.8188 11.1024 24.2301C11.6961 25.1478 14.1378 28.5555 15.3033 29.8983C15.3174 29.9148 15.3438 29.9451 15.3441 29.9535C15.3414 29.9658 15.2454 30.0375 15.2355 30.045C15.1626 30.1005 15.087 30.1575 15.0336 30.2427C14.6904 30.2403 8.89201 24.5466 6.81331 21.3282C5.39611 19.134 4.58941 17.3103 4.19761 15.4152L4.19611 15.4095C2.93881 9.31444 6.92101 5.06974 7.66591 4.93024C7.52851 5.43574 6.16351 6.74374 6.22831 10.9479ZM21.7278 31.7802C21.7485 32.7582 21.7608 33.2046 21.7167 34.4658C21.7159 34.4859 21.6522 34.5051 21.5256 34.524C21.5178 34.5252 20.9982 34.6101 20.9904 34.6092C20.9733 34.5678 21.0246 33.1113 20.8359 31.3752C20.8326 31.3452 20.7912 30.9912 20.8155 30.963C20.8215 30.9588 20.8614 30.9609 20.8689 30.9612C21.1941 30.9735 21.4314 30.8583 21.7065 30.7527C21.7134 30.7851 21.7059 30.7497 21.7278 31.7802ZM19.9395 28.686C20.0922 28.7865 20.1699 28.7121 20.1828 28.7985C20.4675 30.72 20.4534 30.6978 20.3628 30.7668C20.0421 31.0107 19.5657 31.2525 19.1631 31.2354C18.4683 31.2117 18.5058 31.3209 18.2799 30.588C17.8068 29.0544 17.7165 29.1204 17.8032 29.0301C18.4863 28.3194 19.2051 28.2036 19.9395 28.686ZM18.6192 31.5561C19.1466 31.5705 19.3809 31.7373 20.3538 31.2198C20.3832 31.2042 20.4063 31.1865 20.4249 31.1721C20.4594 31.1454 20.4591 31.0878 20.5071 31.6716C20.5926 32.7036 20.6688 33.3483 20.721 34.5066C20.7303 34.7178 20.7258 34.662 20.0157 34.8342C19.6908 34.9125 19.6929 34.9374 19.6689 34.8843C19.647 34.8366 18.6219 31.5891 18.6189 31.5558L18.6192 31.5561ZM17.2668 31.9275C17.961 31.8984 18.1602 31.5693 18.2136 31.5657C18.2205 31.5705 19.2027 34.5444 19.3779 34.9947C19.3284 35.0301 19.3338 35.0274 19.2021 35.067C18.3477 35.3247 18.3786 35.3796 18.3396 35.2947C17.3592 33.1545 16.8507 32.0241 16.7889 31.8495C16.8402 31.8519 16.9758 31.938 17.2668 31.9275ZM18.0237 31.2753C17.637 31.4952 17.1336 31.7127 16.6674 31.4367C16.5456 31.3641 16.5819 31.3743 15.99 30.1077C15.9564 30.0369 15.9837 30.0936 16.2276 29.7498C16.458 29.4258 17.0376 28.9485 17.3979 29.0934C17.4444 29.112 17.4717 29.2017 17.8167 30.2937C18.1068 31.212 18.1347 31.2117 18.0234 31.275L18.0237 31.2753ZM21.6366 30.4074C21.3516 30.5559 21.2292 30.5592 21.0444 30.5595C20.7591 30.5601 20.7705 30.5778 20.7459 30.2904C20.7018 29.7795 20.6481 29.5359 20.5578 29.0784C20.4726 28.6518 20.469 28.6485 20.4999 28.6341C20.9361 28.431 21.105 28.5357 21.3447 28.7229C21.7344 29.0274 21.6582 30.0333 21.6948 30.2766C21.7086 30.366 21.7062 30.3708 21.6366 30.4074ZM20.022 28.2819C19.2408 27.7296 18.2829 28.0116 17.727 28.584C17.3988 28.2918 14.1468 19.9821 12.666 13.2717C12.096 10.6908 11.7648 6.71554 12.7068 4.00624C12.9558 3.28864 13.3083 2.69104 13.8855 2.00824C14.2662 1.55704 15.0567 1.18594 15.9021 1.20844C17.6472 1.24774 18.7353 3.02794 19.4019 4.36354C20.5134 6.59074 20.8935 9.96364 21.0828 12.3069C21.6711 19.5873 20.181 27.75 20.022 28.2819ZM15.0663 30.9381C15.0708 30.8928 15.111 30.5538 15.5916 30.2433C15.6375 30.2136 15.684 30.1824 15.6957 30.1863C15.7221 30.1941 16.2372 31.4358 16.2426 31.458C16.2087 31.4676 16.0464 31.4658 16.0131 31.4664C15.7836 31.4703 15.3294 31.3728 15.1617 31.2123C15.0873 31.1409 15.0552 31.0488 15.0663 30.9381ZM16.4502 31.9506C16.9758 33.2313 17.9001 35.0115 18.1218 35.4468C18.0765 35.4846 18.081 35.4792 17.7453 35.6604C17.6694 35.7015 17.6757 35.7111 17.4195 35.2191C17.2623 34.9176 15.735 32.1066 15.5832 31.7994C16.4502 31.9329 16.3404 31.6824 16.4499 31.9503L16.4502 31.9506ZM22.5333 30.0471C22.3647 30.2178 22.0275 30.2664 22.0209 30.1941C22.0143 30.1221 22.0416 30.1029 21.9711 29.5521C21.918 29.139 21.9249 29.163 21.9603 29.1711C22.3653 29.2686 22.3266 29.3679 22.5072 29.5611C22.626 29.688 22.6242 29.955 22.5333 30.0471ZM22.3662 34.497C22.2684 34.4937 22.1937 34.4937 22.1367 34.4937C22.0602 34.4937 21.9999 34.4937 21.9906 34.4841C21.972 34.4526 22.0182 33.7665 22.0254 33.6861C22.0515 33.3948 22.074 33.1431 22.0503 30.6759C22.0476 30.3978 22.266 30.678 22.6941 30.3276C22.7241 30.3084 22.4763 34.2666 22.3662 34.497ZM22.4679 29.0619C22.4379 29.052 22.3302 28.8684 22.0461 28.8195C22.0335 28.8174 22.0185 28.8147 22.0101 28.8123C22.0257 28.7655 22.0569 28.83 23.1741 25.9662C24.75 21.9267 25.5225 19.5699 26.0133 15.5106C26.2608 13.4661 26.2236 10.2369 25.5579 7.97854C24.7092 5.09824 23.6145 4.01254 22.2285 2.63794C21.9987 2.40994 21.8328 2.31034 21.7194 2.20534C24.9861 3.13534 27.2109 5.61964 28.1397 8.89894C28.7361 11.0046 28.6149 12.7161 28.6095 12.7695C28.6095 12.7695 28.608 12.7755 28.608 12.7785C28.608 18.8487 25.5663 23.8515 23.7489 26.8407C22.4439 28.9869 22.5294 29.0304 22.4676 29.0622L22.4679 29.0619ZM25.8117 42.5589C25.566 42.4785 25.26 42.378 22.3998 43.0725C19.5357 43.7685 18.6468 44.1987 18.3549 44.3403C18.3222 44.3562 18.2925 44.3706 18.2742 44.3778C18.2742 44.3559 18.2775 44.3283 18.2748 44.3019C18.2085 41.7906 18.2589 42.8964 18.2394 41.4399C18.2358 41.2068 18.3528 41.1093 19.4292 40.7577C19.4043 40.8561 19.2387 41.1117 19.0506 41.5632C18.7971 42.1722 19.2459 42.6747 19.7847 42.588C20.1465 42.5307 20.5398 42.0576 20.5248 41.511C20.5056 40.7757 20.2791 40.5588 20.3148 40.4871C20.3301 40.4571 20.3778 40.4568 21.2121 40.2219C22.0308 39.9912 21.9537 40.0167 21.9294 40.1034C21.9147 40.1535 21.9129 40.1658 21.9039 40.2126C21.8205 40.6416 21.6939 41.2899 21.9492 41.6709C22.1211 41.9271 22.4547 41.9472 22.7097 41.8806C23.4462 41.6883 23.4315 40.4607 23.0238 39.8022C23.1411 39.759 24.6642 39.5631 24.8322 39.9405C24.8844 40.0578 25.8306 42.2718 25.9386 42.5919C25.8906 42.5847 25.8534 42.5727 25.8117 42.5589ZM22.3854 41.5425C22.0788 41.4684 22.1511 40.9068 22.1895 40.605C22.2726 39.9531 22.2627 39.9576 22.3251 39.939C22.5396 39.8739 22.644 39.8595 22.7433 39.996C23.1234 40.5219 23.0628 41.7063 22.3854 41.5425ZM20.1606 41.4798C20.1483 41.7507 20.1456 41.9283 19.8522 42.1608C19.59 42.3681 19.2534 42.0462 19.35 41.8107C19.7055 40.9428 19.7514 40.9719 19.806 40.6737C19.812 40.6401 19.8327 40.6089 19.8666 40.6089C20.0256 40.6089 20.1753 41.2023 20.1606 41.4798ZM25.2639 40.0563C25.7973 40.3077 26.1165 40.6377 26.2383 41.064C26.2326 41.2494 26.0937 41.457 25.9332 41.5185C25.8996 41.5317 25.9005 41.5398 25.8528 41.4147C25.791 41.2524 25.266 40.0632 25.2636 40.0566L25.2639 40.0563Z" fill="#656565"/>
</g>
</g>
</svg>
