<svg width="2196" height="938" viewBox="0 0 2196 938" fill="none" xmlns="http://www.w3.org/2000/svg">
<path d="M795.071 511.613C795.014 516.418 795.059 521.059 795.071 525.86C795.313 620.298 795.619 714.736 795.909 809.174C795.921 812.839 795.477 815.893 796.067 820.131C799.277 843.215 822.66 853.994 839.39 866.232C852.363 877.611 776.89 941.907 749.101 937.035C723.47 932.541 701.43 916.386 680.34 901.939C676.864 899.557 674.404 899.45 671.566 901.952C655.644 915.99 633.16 930.435 611.891 934.676C531.821 950.642 475.845 890.98 454.239 822.197C440.52 778.523 440.643 731.386 447.754 686.419C460.471 606.007 517.582 524.114 613.435 544.528C630.453 548.152 642.284 553.024 657.738 561.672C662.86 564.613 665.83 568.228 666.53 561.171C666.986 556.56 667.377 551.915 667.331 547.288C667.198 534.012 667.494 520.681 666.346 507.483C665.525 498.034 666.184 489.08 660.466 479.479C650.424 462.619 628.627 455.121 614.745 458.629C593.117 464.096 563.577 487.823 559.468 489.718C555.36 491.613 550.132 488.243 546.26 485.09C537.689 478.112 528.973 471.256 520.937 463.689C474.547 420.007 456.223 402.887 529.538 366.473C543.86 360.627 557.194 353.685 571.326 349.329C720.392 303.378 796.573 385.885 795.071 511.613ZM571.506 780.589C576.372 800.976 585.412 818.785 603.286 830.674C617.114 839.872 632.108 844.805 649.009 839.654C658.408 836.789 665.801 828.665 665.805 820.235C665.835 767.741 665.837 715.247 665.75 662.754C665.746 660.334 665.201 657.742 664.231 655.527C657.679 640.557 644.112 635.675 630.846 637.306C610.523 639.805 596.637 652.118 586.069 668.926C566.743 699.662 563.308 746.247 571.506 780.589Z" fill="#F6AA58"/>
<path d="M1129.33 790.064C1121.63 798.447 1112.76 805.465 1101.43 807.487C976.656 829.754 973.897 441.905 1101.43 464.664C1112.77 466.686 1121.64 473.704 1129.33 482.087C1147.35 501.706 1159.02 526.967 1170.58 551.037C1173.59 557.317 1179.09 560.813 1184.07 559.194C1214.41 549.335 1243.62 535.063 1270.49 517.86C1278.42 512.785 1279.72 507.683 1276.02 498.585C1250.18 434.959 1214.02 367.388 1144.9 343.855C1102.17 329.307 1052.67 333.715 1013.97 356.771C840.863 460.684 848.534 816.039 1013.97 915.381C1052.67 938.436 1102.17 942.844 1144.9 928.296C1214.02 904.764 1250.18 837.192 1276.02 773.567C1279.72 764.468 1278.42 759.366 1270.49 754.292C1243.62 737.089 1214.41 722.816 1184.07 712.958C1179.09 711.338 1173.59 714.835 1170.58 721.114C1159.01 745.184 1147.35 770.445 1129.33 790.064Z" fill="#4D8ECB"/>
<path d="M1355.77 500.563C1362.82 476.465 1373.26 453.838 1386.43 432.472C1446.35 335.243 1577.47 288.701 1662.41 400.721C1713.54 475.173 1726.7 564.614 1730.71 649.972C1730.38 656.585 1722.91 659.219 1717.41 659.213C1640.92 659.136 1564.42 659.172 1487.93 659.184C1481.26 659.185 1474.59 659.196 1467.93 659.239C1464.19 659.263 1461.93 660.692 1462.19 664.935C1464.58 704.741 1474.26 828.893 1546.51 816.845C1557.67 814.984 1566.41 808.527 1573.99 800.813C1591.73 782.76 1603.22 759.517 1614.61 737.368C1617.58 731.59 1622.99 728.373 1627.9 729.863C1657.6 738.882 1686.36 751.957 1713 767.897C1720.81 772.566 1722.09 777.261 1718.45 785.633C1692.28 845.815 1655.51 906.95 1589.32 928.008C1547.31 941.373 1498.88 937.557 1460.38 916.124C1324.77 840.629 1318.11 629.371 1355.77 500.563ZM1550.32 460.018C1539.88 454.853 1529.49 455.179 1519.17 460.352C1490.9 474.517 1477.37 513.172 1468.82 541.038C1467.15 546.482 1467.47 546.956 1473.33 546.958C1512.49 546.969 1551.65 546.971 1590.81 546.957C1592.41 546.957 1594.02 546.762 1595.64 546.656C1595.79 545.499 1595.96 544.845 1595.92 544.203C1595.87 543.211 1595.75 542.21 1595.54 541.24C1589.32 513.221 1577.6 474.775 1550.32 460.018Z" fill="#EC6B69"/>
<path d="M332.453 277.264C325.199 279.599 325.199 290.634 325.199 290.634L323.157 925.908C323.157 925.908 321.908 930.955 318.516 931.412C274.498 937.342 225.412 941.316 181.775 931.573C177.71 930.666 176.941 927.278 176.957 923.371C177.782 723.743 176.997 524.099 176.998 324.47C176.998 313.033 174.91 311.689 164.582 317.002C146.042 326.539 128.259 338.037 109.589 347.16C102.292 350.725 96.0762 347.414 90.7257 342.392C59.9056 313.46 28.9429 284.935 2.38466 251.964C-0.99852 247.764 -0.85045 243.948 3.26893 240.575C48.5584 203.492 112.497 174.324 168.872 159.158C175.066 157.491 177.005 155.424 177.005 148.878C177.008 103.885 177.006 58.8924 177.015 13.8998C177.016 6.97607 180.233 3.39488 187.097 3.13484C227.561 -0.841551 276 -1.53612 316.306 4.00048C320.5 4.99109 323.413 6.68835 323.331 11.8229C322.722 49.823 324.191 88.1241 324.202 126.18C324.204 133.309 325.965 134.999 332.892 135.124C376.732 135.919 425.606 134.292 467.764 148.688C474.777 151.083 475 158.024 474.98 163.741C474.849 201.723 474.774 242.425 466.352 279.599C464.45 287.995 461.318 288.535 453.184 286.066C414.346 274.278 372.5 272.491 332.453 277.264Z" fill="#33B4A8"/>
<path d="M2070.27 613.543C2063.87 615.878 2063.87 626.914 2063.87 626.914L2062.07 924.281C2062.07 924.281 2060.97 929.328 2057.98 929.785C2019.15 935.716 1975.85 939.689 1937.35 929.946C1933.77 929.039 1933.09 925.652 1933.1 921.745C1933.83 722.118 1933.14 860.377 1933.14 660.749C1933.14 649.312 1931.3 647.968 1922.18 653.281C1905.83 662.818 1890.14 674.316 1873.67 683.438C1867.24 687.003 1861.75 683.693 1857.03 678.67C1829.85 649.739 1802.53 621.214 1779.1 588.243C1776.12 584.043 1776.25 580.228 1779.88 576.855C1819.84 539.772 1876.24 510.604 1925.97 495.437C1931.43 493.771 1933.14 491.704 1933.14 485.157C1933.15 440.165 1933.14 395.173 1933.15 350.18C1933.15 343.257 1935.99 339.676 1942.05 339.415C1977.74 335.439 2021 335.245 2056.03 340.281C2059.73 341.272 2062.3 342.969 2062.22 348.104C2061.69 386.103 2062.98 424.404 2062.99 462.46C2062.99 469.589 2064.55 471.279 2070.66 471.404C2109.33 472.199 2152.44 470.572 2189.63 484.968C2195.82 487.363 2196.02 494.304 2196 500.021C2195.88 538.002 2195.82 578.704 2188.39 615.878C2186.71 624.274 2183.95 624.814 2176.77 622.345C2142.51 610.557 2105.6 608.77 2070.27 613.543Z" fill="#685777"/>
</svg>
