<svg width="1585" height="591" viewBox="0 0 1585 591" fill="none" xmlns="http://www.w3.org/2000/svg">
<path opacity="0.87" d="M254.5 214.999C254.5 214.999 254.507 579.964 254.5 583.599C254.493 587.234 250.575 588.008 247.921 588.364C212.5 590.6 179.5 590.6 144.029 588.49C140.848 587.783 137.987 586.143 138 583.099C138.646 427.577 137.591 240.067 137.591 240.067C124.906 247.93 100.244 263.263 100.244 263.263C100.244 263.263 91.3646 268.988 86.6475 271.283C80.9384 274.06 76.0745 269.781 71.8881 265.868C61.6583 256.307 51.4343 246.737 41.3531 237.021C27.6313 223.796 14.7509 210.234 2.76625 195.42C0.119106 192.148 0.234958 189.175 3.45815 186.548C13.7929 178.122 25.7668 170.777 37.3074 164.175C63.4736 149.208 89.3286 137.978 117.5 127.5C121.965 125.839 139.397 121.067 139.397 121.067C139.397 84.0296 139.397 46.9916 139.405 9.95379C139.5 4.49912 141.965 0.967574 147.293 0.767264C181 -0.499826 216 0.068085 248.5 0.767431C251.512 0.832246 254.634 5.08298 254.57 9.08313C254.5 38.4992 254.57 104.395 254.57 104.395C268.538 104.395 282.537 104.46 296.485 105.242C318.787 106.493 340.88 106.456 362.3 113.6C365 114.5 369.521 116.374 370.3 123C370.841 127.601 369.8 189.5 369.8 191.5C369.8 193.5 368.5 211.499 368 214.999C367.505 218.464 364 224.5 358.5 224C325.058 218.72 288.437 214.621 254.5 214.999Z" fill="#33B4A9"/>
<path d="M546.154 580.029V540.847H544.837C534.177 557.557 519.978 569.575 502.198 576.901C484.418 584.144 465.691 587.766 446.059 587.766C426.839 587.766 408.771 584.144 391.897 576.901C374.981 569.575 361.276 558.75 350.739 544.469C340.285 530.105 335.1 512.448 335.1 491.458C335.1 470.056 339.75 452.441 349.093 438.612C358.518 424.701 370.906 413.877 386.299 406.18C401.774 398.525 418.772 392.969 437.334 389.553C455.978 386.055 474.787 383.914 493.802 383.132C512.899 382.268 530.349 381.815 546.154 381.815C546.154 364.694 540.063 351.153 527.88 341.152C515.698 331.069 501.251 326.006 484.583 326.006C468.778 326.006 454.332 329.381 441.285 336.049C428.197 342.634 416.591 351.688 406.384 363.212L355.02 310.531C372.553 293.862 393.543 281.351 417.908 272.996C442.273 264.682 467.05 260.484 492.32 260.484C529.938 260.484 559.036 266.699 579.574 279.087C600.07 291.516 614.393 309.708 622.542 333.744C630.65 357.697 634.724 386.919 634.724 421.491V580.029H546.154ZM546.154 443.387H522.447C515.204 443.387 506.19 443.839 495.448 444.704C484.788 445.609 474.211 447.42 463.675 450.136C453.221 452.894 444.578 457.298 437.663 463.307C430.831 469.233 427.456 477.588 427.456 488.33C427.456 499.854 432.313 508.415 442.108 514.012C451.986 519.527 462.275 522.244 473.059 522.244C491.826 522.244 508.66 517.387 523.6 507.592C538.622 497.714 546.154 483.186 546.154 463.965V443.387Z" fill="#EC6A6B"/>
<path d="M969.496 302.299L906.114 368.974C901.381 362.183 894.755 356.544 886.194 352.017C877.633 347.531 868.414 345.267 858.536 345.267C834.583 345.267 815.774 352.593 802.069 367.163C788.446 381.65 781.655 400.665 781.655 424.125C781.655 447.625 788.446 466.681 802.069 481.251C815.774 495.738 834.583 502.982 858.536 502.982C869.278 502.982 878.498 500.677 886.194 496.067C893.849 491.375 900.517 485.778 906.114 479.275L969.496 545.95C954.556 561.425 936.941 572.291 916.65 578.546C896.319 584.679 876.975 587.766 858.536 587.766C826.475 587.766 797.294 581.016 770.954 567.516C744.695 554.017 723.87 535.002 708.395 510.39C693.002 485.819 685.347 457.05 685.347 424.125C685.347 390.787 693.002 361.895 708.395 337.53C723.87 313.165 744.695 294.232 770.954 280.733C797.294 267.233 826.475 260.483 858.536 260.483C876.975 260.483 896.319 263.611 916.65 269.867C936.941 276.041 954.556 286.824 969.496 302.299Z" fill="#4D8ECB"/>
<path d="M1231.91 476.806L1299.25 526.195C1283.85 545.868 1264.39 561.055 1240.8 571.797C1217.3 582.416 1192.94 587.766 1167.71 587.766C1135.65 587.766 1106.47 581.016 1080.13 567.517C1053.87 554.017 1033.04 535.003 1017.57 510.391C1002.17 485.82 994.52 457.051 994.52 424.125C994.52 390.788 1002.17 361.895 1017.57 337.53C1033.04 313.165 1053.87 294.233 1080.13 280.733C1106.47 267.234 1135.65 260.484 1167.71 260.484C1197.67 260.484 1223.56 267.234 1245.41 280.733C1267.23 294.233 1284.14 313.165 1296.12 337.53C1308.06 361.895 1314.06 390.788 1314.06 424.125V454.252H1090.83C1094.66 472.691 1103.05 487.425 1116.02 498.373C1129.06 509.238 1144.83 514.671 1163.26 514.671C1179.07 514.671 1192.4 511.049 1203.27 503.805C1214.22 496.479 1223.77 487.466 1231.91 476.806ZM1090.83 388.894H1217.76C1218.17 372.678 1212.82 358.767 1201.62 347.243C1190.51 335.637 1176.27 329.793 1158.82 329.793C1137.83 329.793 1121.53 335.884 1109.92 348.066C1098.4 360.249 1092.02 373.872 1090.83 388.894Z" fill="#F6A957"/>
<path d="M1584.63 268.22V345.266H1500.01V449.147C1500.01 460.26 1500.84 470.179 1502.48 478.945C1504.21 487.753 1508.41 494.585 1515 499.524C1521.66 504.463 1531.87 506.932 1545.62 506.932C1550.64 506.932 1557.35 506.397 1565.7 505.286C1574.01 504.216 1580.35 501.746 1584.63 497.877V578.052C1573.97 581.879 1562.9 584.472 1551.38 585.789C1539.85 587.106 1528.49 587.765 1517.3 587.765C1495.9 587.765 1476.64 584.678 1459.52 578.546C1442.48 572.29 1428.94 562.206 1418.85 548.254C1408.73 534.343 1403.71 516.069 1403.71 493.432V345.266H1342.13V268.22H1403.71V175.863H1500.01V268.22H1584.63Z" fill="#A761A3"/>
</svg>
