<svg width="30" height="31" viewBox="0 0 30 31" fill="none" xmlns="http://www.w3.org/2000/svg">
<g id="cloud-upload-alt-solid">
<path id="Vector" d="M15 7.0625C12.5171 7.0625 10.3601 8.22339 8.81836 9.93359C8.69019 9.91895 8.57666 9.875 8.4375 9.875C6.37573 9.875 4.6875 11.5632 4.6875 13.625C3.06519 14.6138 1.875 16.2837 1.875 18.3125C1.875 21.407 4.40552 23.9375 7.5 23.9375H12.1875V22.0625H7.5C5.41992 22.0625 3.75 20.3926 3.75 18.3125C3.75 16.7561 4.69482 15.4268 6.03516 14.8555L6.67969 14.5918L6.5918 13.8887C6.57349 13.7349 6.5625 13.647 6.5625 13.625C6.5625 12.5776 7.39014 11.75 8.4375 11.75C8.56934 11.75 8.71582 11.7683 8.87695 11.8086L9.46289 11.9551L9.81445 11.4863C11.0156 9.94458 12.8906 8.9375 15 8.9375C18.0725 8.9375 20.636 11.0505 21.3574 13.8887L21.5332 14.6211L22.3242 14.5918C22.522 14.5808 22.5659 14.5625 22.5 14.5625C24.5801 14.5625 26.25 16.2324 26.25 18.3125C26.25 20.3926 24.5801 22.0625 22.5 22.0625H17.8125V23.9375H22.5C25.5945 23.9375 28.125 21.407 28.125 18.3125C28.125 15.3535 25.7922 12.9841 22.8809 12.7754C21.7346 9.47583 18.6804 7.0625 15 7.0625ZM15 14.5625L11.25 18.3125H14.0625V25.8125H15.9375V18.3125H18.75L15 14.5625Z" fill="#838383"/>
</g>
</svg>
